#!OML:ASF F:\VICON\USERDATA\INSTALL\rory3\rory3.ASF
:FULLY-SPECIFIED
:DEGREES
314
root 1.16435 17.6577 7.2224 -167.808 -74.6492 -196.244
lowerback 23.6472 -0.0917969 -1.45411
upperback 3.88654 -0.360279 6.52773
thorax -8.85344 -0.246037 8.30027
lowerneck -12.9109 0.975632 -2.22391
upperneck 14.9309 2.97208 -8.48579
head 6.81496 0.460673 -2.09969
rclavicle -1.27222e-014 7.63333e-014
rhumerus -48.4759 -42.3767 -42.9507
rradius 49.7459
rwrist -34.0748
rhand -19.9962 -2.25369
rfingers 7.12502
rthumb 6.34344 -32.1387
lclavicle -1.27222e-014 7.63333e-014
lhumerus -46.9175 10.6183 78.1056
lradius 49.6785
lwrist 18.7206
lhand -17.1781 53.4164
lfingers 7.12502
lthumb 9.06344 83.2017
rfemur -15.9281 -9.57947 13.2359
rtibia 59.3188
rfoot -22.8784 -36.2246
rtoes 21.4535
lfemur -14.9557 4.3887 -27.1103
ltibia 37.1031
lfoot -14.5918 6.82379
ltoes -4.5675
315
root 1.13637 17.6569 7.24033 -166.914 -75.1111 -196.937
lowerback 23.4128 -0.171686 -1.7175
upperback 3.87497 -0.524255 6.56516
thorax -8.71482 -0.317516 8.53786
lowerneck -12.9882 1.05843 -2.17609
upperneck 14.8989 3.09205 -8.56371
head 6.82466 0.513918 -2.12085
rclavicle -3.73715e-014 3.81667e-014
rhumerus -48.9862 -41.8906 -42.5761
rradius 51.0368
rwrist -34.6222
rhand -19.7172 -2.47328
rfingers 7.12502
rthumb 6.61283 -32.35
lclavicle -3.73715e-014 3.81667e-014
lhumerus -47.0491 11.5389 77.4196
lradius 48.3694
lwrist 19.0972
lhand -17.6692 53.6346
lfingers 7.12502
lthumb 8.58962 83.4399
rfemur -16.899 -9.29156 13.0079
rtibia 60.6202
rfoot -22.0997 -36.207
rtoes 24.3844
lfemur -15.1457 3.55431 -27.3603
ltibia 37.0576
lfoot -14.5801 6.99603
ltoes -3.26206
316
root 1.10612 17.6638 7.24788 -166.804 -75.4591 -197.3
lowerback 23.7501 -0.161467 -1.85579
upperback 3.89375 -0.548579 6.48608
thorax -8.86696 -0.321094 8.55438
lowerneck -13.0354 1.03166 -2.05259
upperneck 14.9344 3.03562 -8.53731
head 6.84271 0.495454 -2.13827
rclavicle -6.04305e-014 -6.04305e-014
rhumerus -50.084 -41.6426 -41.9267
rradius 52.4721
rwrist -35.0223
rhand -19.1429 -2.46642
rfingers 7.12502
rthumb 7.1672 -32.3251
lclavicle -6.04305e-014 -6.04305e-014
lhumerus -47.2279 12.0573 76.6851
lradius 47.0388
lwrist 19.269
lhand -17.7479 53.8485
lfingers 7.12502
lthumb 8.51358 83.6569
rfemur -17.1842 -8.59385 12.8842
rtibia 61.7531
rfoot -20.7722 -34.2728
rtoes 30.3098
lfemur -14.6495 2.83795 -27.4996
ltibia 36.8399
lfoot -14.5201 7.57061
ltoes -5.0865
317
root 1.07655 17.6669 7.24786 -166.279 -75.7579 -197.901
lowerback 23.8676 -0.0567139 -2.06828
upperback 3.83175 -0.460593 6.30018
thorax -9.01214 -0.261134 8.44714
lowerneck -13.0249 0.955793 -1.72583
upperneck 15.1523 2.85948 -8.34731
head 6.90291 0.4425 -2.14935
rclavicle 4.85035e-014 4.6118e-014
rhumerus -51.4973 -41.4915 -41.1625
rradius 53.9599
rwrist -35.2777
rhand -18.7804 -2.86159
rfingers 7.12502
rthumb 7.51716 -32.708
lclavicle 4.85035e-014 4.6118e-014
lhumerus -47.4175 12.4293 75.7346
lradius 45.6342
lwrist 18.9326
lhand -17.5035 54.1554
lfingers 7.12502
lthumb 8.7495 83.954
rfemur -17.5994 -7.65688 12.7653
rtibia 62.7539
rfoot -18.6698 -34.3919
rtoes 30.0054
lfemur -14.2954 2.85892 -27.6073
ltibia 36.5198
lfoot -14.4452 7.34586
ltoes -4.93457
318
root 1.04769 17.6787 7.25564 -165.666 -75.9494 -198.477
lowerback 23.8785 0.0365358 -2.30201
upperback 3.79454 -0.392292 6.21922
thorax -9.06939 -0.214506 8.47337
lowerneck -12.984 0.934023 -1.51225
upperneck 15.2155 2.79588 -8.36925
head 6.91561 0.422372 -2.19844
rclavicle -6.99722e-014 3.33958e-014
rhumerus -52.4963 -41.2218 -40.5502
rradius 55.223
rwrist -35.1102
rhand -18.4369 -2.47127
rfingers 7.12502
rthumb 7.8487 -32.3056
lclavicle -6.99722e-014 3.33958e-014
lhumerus -47.6261 12.9593 75.0933
lradius 44.438
lwrist 18.8542
lhand -17.7804 54.6931
lfingers 7.12502
lthumb 8.48227 84.5027
rfemur -18.1344 -6.62188 12.659
rtibia 63.647
rfoot -15.8711 -35.1239
rtoes 27.6001
lfemur -14.0171 2.92228 -27.7505
ltibia 36.1013
lfoot -14.3145 7.17976
ltoes -5.45848
319
root 1.01992 17.6905 7.25932 -166.034 -76.0642 -198.055
lowerback 23.8614 0.0842924 -2.39639
upperback 3.85676 -0.358989 6.21983
thorax -8.99523 -0.201208 8.51602
lowerneck -12.9607 0.974616 -1.4282
upperneck 14.9839 2.82038 -8.35476
head 6.83801 0.452753 -2.20216
rclavicle -1.59028e-015 1.43125e-013
rhumerus -53.195 -41.1101 -40.076
rradius 56.75
rwrist -34.9856
rhand -18.248 -1.53969
rfingers 7.12502
rthumb 8.03098 -31.3671
lclavicle -1.59028e-015 1.43125e-013
lhumerus -47.7562 13.5706 74.5079
lradius 43.3206
lwrist 19.0212
lhand -18.2628 55.0924
lfingers 7.12502
lthumb 8.01668 84.9204
rfemur -18.7476 -5.77806 12.713
rtibia 64.5122
rfoot -10.801 -34.9748
rtoes 22.3388
lfemur -13.6411 1.19599 -27.8649
ltibia 35.6178
lfoot -14.0444 9.14443
ltoes -8.29792
320
root 0.988424 17.6902 7.25687 -164.557 -76.1377 -199.619
lowerback 23.8443 0.0742693 -3.09904
upperback 3.88981 -0.554783 6.10274
thorax -8.91046 -0.275254 8.85741
lowerneck -12.7737 1.12255 -1.34223
upperneck 14.7539 2.98106 -8.33547
head 6.73765 0.551504 -2.19163
rclavicle -2.54444e-014 7.95139e-015
rhumerus -53.7358 -40.7046 -39.6773
rradius 58.2621
rwrist -35.6969
rhand -19.6291 -2.25611
rfingers 7.12502
rthumb 6.69783 -32.1302
lclavicle -2.54444e-014 7.95139e-015
lhumerus -48.1534 14.0563 73.7865
lradius 42.2425
lwrist 18.771
lhand -18.3337 55.5191
lfingers 7.12502
lthumb 7.94826 85.3497
rfemur -19.2703 -5.16569 12.0718
rtibia 65.3949
rfoot -13.415 -32.7436
rtoes 29.6497
lfemur -13.2526 1.79999 -28.2382
ltibia 35.0281
lfoot -13.7085 8.62286
ltoes -9.09097
321
root 0.964378 17.682 7.27191 -159.058 -76.2379 -205.385
lowerback 24.003 -0.0156868 -4.44963
upperback 3.90472 -1.03753 5.6701
thorax -8.87388 -0.463182 9.31784
lowerneck -12.8003 1.30631 -1.20232
upperneck 14.6771 3.20074 -8.30191
head 6.72682 0.672481 -2.18156
rclavicle 2.70347e-014 -4.6118e-014
rhumerus -54.2333 -40.5065 -39.1995
rradius 59.4276
rwrist -38.0842
rhand -18.3375 -5.34724
rfingers 7.12502
rthumb 7.94461 -35.1779
lclavicle 2.70347e-014 -4.6118e-014
lhumerus -48.5709 14.4763 73.0207
lradius 41.2783
lwrist 18.5444
lhand -18.3345 55.7029
lfingers 7.12502
lthumb 7.94749 85.5335
rfemur -19.6696 -4.91787 10.221
rtibia 66.252
rfoot -11.4875 -28.6462
rtoes 28.1345
lfemur -12.7936 1.56336 -29.739
ltibia 34.4558
lfoot -13.4731 8.42623
ltoes -8.84461
322
root 0.937782 17.6877 7.25881 -154.738 -76.2785 -209.921
lowerback 24.057 0.00152052 -5.82461
upperback 3.94673 -1.38142 5.39428
thorax -8.75903 -0.591332 9.92615
lowerneck -12.8878 1.41218 -1.32585
upperneck 14.7383 3.34852 -8.10051
head 6.76183 0.750894 -2.08195
rclavicle -1.03368e-014 -9.22361e-014
rhumerus -55.0793 -40.6061 -38.3409
rradius 60.7416
rwrist -41.5707
rhand -17.1653 -0.834441
rfingers 7.12502
rthumb 9.0758 -30.6192
lclavicle -1.03368e-014 -9.22361e-014
lhumerus -48.936 15.067 72.3091
lradius 40.3051
lwrist 18.4074
lhand -18.3263 56.0303
lfingers 7.12502
lthumb 7.9554 85.8606
rfemur -19.8604 -4.20069 9.00979
rtibia 66.8404
rfoot -10.7185 -24.7392
rtoes 26.1915
lfemur -12.2831 1.44104 -30.7724
ltibia 33.9836
lfoot -13.3448 8.09399
ltoes -8.49899
